<svg xmlns="http://www.w3.org/2000/svg" xmlns:xlink="http://www.w3.org/1999/xlink" viewBox="0 0 129.172 129.172">
  <defs>
    <style>
      .cls-1 {
        fill: none;
        stroke: #575757;
        stroke-miterlimit: 10;
        stroke-width: 2px;
        stroke-dasharray: 3.986 3.986;
      }

      .cls-2 {
        fill: #575757;
      }

      .cls-3 {
        filter: url(#Ellipse_224);
      }
    </style>
    <filter id="Ellipse_224" x="0" y="0" width="129.172" height="129.172" filterUnits="userSpaceOnUse">
      <feOffset dy="3" input="SourceAlpha"/>
      <feGaussianBlur stdDeviation="3" result="blur"/>
      <feFlood flood-opacity="0.161"/>
      <feComposite operator="in" in2="blur"/>
      <feComposite in="SourceGraphic"/>
    </filter>
  </defs>
  <g id="ic_btn_finish" transform="translate(-1094 -888)">
    <g id="Group_30" data-name="Group 30" transform="translate(-142 590)">
      <g id="Dashed_Circle" data-name="Dashed Circle" transform="translate(1246 305)">
        <g class="cls-3" transform="matrix(1, 0, 0, 1, -10, -7)">
          <circle id="Ellipse_224-2" data-name="Ellipse 224" class="cls-1" cx="54.586" cy="54.586" r="54.586" transform="translate(10 7)"/>
        </g>
      </g>
    </g>
    <g id="Group_27" data-name="Group 27" transform="translate(-0.522 0.736)">
      <g id="Group_26" data-name="Group 26" transform="translate(-3951 -297)">
        <path id="Union_2" data-name="Union 2" class="cls-2" d="M1.2,16.269a2,2,0,0,1,.394-2.8l.048-.037a2,2,0,0,1,2.8.394l5.518,7.322L36.431,1.2a2,2,0,0,1,2.8.394l.037.048a2,2,0,0,1-.394,2.8L9.343,26.7l-.03-.04-.178.134Z" transform="translate(5089.722 1232.463)"/>
      </g>
    </g>
  </g>
</svg>
