<svg xmlns="http://www.w3.org/2000/svg" xmlns:xlink="http://www.w3.org/1999/xlink" viewBox="0 0 129.172 129.172">
  <defs>
    <style>
      .cls-1 {
        fill: #575757;
      }

      .cls-2 {
        fill: none;
        stroke: #575757;
        stroke-miterlimit: 10;
        stroke-width: 2px;
        stroke-dasharray: 3.986 3.986;
      }

      .cls-3 {
        filter: url(#Ellipse_224);
      }
    </style>
    <filter id="Ellipse_224" x="0" y="0" width="129.172" height="129.172" filterUnits="userSpaceOnUse">
      <feOffset dy="3" input="SourceAlpha"/>
      <feGaussianBlur stdDeviation="3" result="blur"/>
      <feFlood flood-opacity="0.161"/>
      <feComposite operator="in" in2="blur"/>
      <feComposite in="SourceGraphic"/>
    </filter>
  </defs>
  <g id="ic_btn_add" transform="translate(-1236 -298)">
    <g id="Group_2" data-name="Group 2" transform="translate(1280.918 339.918)">
      <path id="Union_1" data-name="Union 1" class="cls-1" d="M18.407,38.978a1.507,1.507,0,0,1-1.354-1.624V21.925H2a2,2,0,0,1-2-2v-.06a2,2,0,0,1,2-2H17.053V1.625A1.507,1.507,0,0,1,18.407,0H19.76a1.507,1.507,0,0,1,1.353,1.625v16.24H36.978a2,2,0,0,1,2,2v.06a2,2,0,0,1-2,2H21.113v15.43a1.507,1.507,0,0,1-1.353,1.624Z" transform="translate(0 0)"/>
    </g>
    <g id="Dashed_Circle" data-name="Dashed Circle" transform="translate(1246 305)">
      <g class="cls-3" transform="matrix(1, 0, 0, 1, -10, -7)">
        <circle id="Ellipse_224-2" data-name="Ellipse 224" class="cls-2" cx="54.586" cy="54.586" r="54.586" transform="translate(10 7)"/>
      </g>
    </g>
  </g>
</svg>
